<svg width="22" height="22" viewBox="0 0 22 22" fill="none" xmlns="http://www.w3.org/2000/svg">
<path d="M10.6667 0.333496C12.0812 0.333496 13.4377 0.895399 14.4379 1.89559C15.4381 2.89579 16 4.25234 16 5.66683C16 7.08132 15.4381 8.43787 14.4379 9.43807C13.4377 10.4383 12.0812 11.0002 10.6667 11.0002C9.25218 11.0002 7.89562 10.4383 6.89543 9.43807C5.89524 8.43787 5.33333 7.08132 5.33333 5.66683C5.33333 4.25234 5.89524 2.89579 6.89543 1.89559C7.89562 0.895399 9.25218 0.333496 10.6667 0.333496ZM10.6667 13.6668C16.56 13.6668 21.3333 16.0535 21.3333 19.0002V21.6668H0V19.0002C0 16.0535 4.77333 13.6668 10.6667 13.6668Z" fill="#CFCFD1"/>
</svg>
