<svg width="36" height="36" viewBox="0 0 36 36" fill="none" xmlns="http://www.w3.org/2000/svg">
<g clip-path="url(#clip0)">
<path fill-rule="evenodd" clip-rule="evenodd" d="M6.75 27C7.94347 27 9.08807 26.5259 9.93198 25.682C10.7759 24.8381 11.25 23.6935 11.25 22.5C11.25 21.3065 10.7759 20.1619 9.93198 19.318C9.08807 18.4741 7.94347 18 6.75 18C5.55653 18 4.41193 18.4741 3.56802 19.318C2.72411 20.1619 2.25 21.3065 2.25 22.5C2.25 23.6935 2.72411 24.8381 3.56802 25.682C4.41193 26.5259 5.55653 27 6.75 27ZM6.75 29.25C8.54021 29.25 10.2571 28.5388 11.523 27.273C12.7888 26.0071 13.5 24.2902 13.5 22.5C13.5 20.7098 12.7888 18.9929 11.523 17.727C10.2571 16.4612 8.54021 15.75 6.75 15.75C4.95979 15.75 3.2429 16.4612 1.97703 17.727C0.711159 18.9929 0 20.7098 0 22.5C0 24.2902 0.711159 26.0071 1.97703 27.273C3.2429 28.5388 4.95979 29.25 6.75 29.25ZM29.25 27C30.4435 27 31.5881 26.5259 32.432 25.682C33.2759 24.8381 33.75 23.6935 33.75 22.5C33.75 21.3065 33.2759 20.1619 32.432 19.318C31.5881 18.4741 30.4435 18 29.25 18C28.0565 18 26.9119 18.4741 26.068 19.318C25.2241 20.1619 24.75 21.3065 24.75 22.5C24.75 23.6935 25.2241 24.8381 26.068 25.682C26.9119 26.5259 28.0565 27 29.25 27ZM29.25 29.25C31.0402 29.25 32.7571 28.5388 34.023 27.273C35.2888 26.0071 36 24.2902 36 22.5C36 20.7098 35.2888 18.9929 34.023 17.727C32.7571 16.4612 31.0402 15.75 29.25 15.75C27.4598 15.75 25.7429 16.4612 24.477 17.727C23.2112 18.9929 22.5 20.7098 22.5 22.5C22.5 24.2902 23.2112 26.0071 24.477 27.273C25.7429 28.5388 27.4598 29.25 29.25 29.25Z" fill="#F35D38"/>
<path fill-rule="evenodd" clip-rule="evenodd" d="M9 10.125C9 9.82663 9.11853 9.54048 9.32951 9.32951C9.54049 9.11853 9.82663 9 10.125 9H13.5C13.7984 9 14.0845 9.11853 14.2955 9.32951C14.5065 9.54048 14.625 9.82663 14.625 10.125C14.625 10.4234 14.5065 10.7095 14.2955 10.9205C14.0845 11.1315 13.7984 11.25 13.5 11.25V12.375H22.815L23.6835 9.7695C23.7581 9.54558 23.9012 9.35078 24.0926 9.21268C24.284 9.07458 24.514 9.00018 24.75 9H27C27.2984 9 27.5845 9.11853 27.7955 9.32951C28.0065 9.54048 28.125 9.82663 28.125 10.125C28.125 10.4234 28.0065 10.7095 27.7955 10.9205C27.5845 11.1315 27.2984 11.25 27 11.25H25.56L24.8602 13.3537L30.204 21.9037C30.3621 22.1568 30.4133 22.4622 30.3462 22.753C30.2791 23.0437 30.0993 23.2959 29.8462 23.454C29.5932 23.6121 29.2878 23.6633 28.997 23.5962C28.7063 23.5291 28.4541 23.3493 28.296 23.0962L23.625 15.6217L18.954 23.0962C18.8529 23.2581 18.7123 23.3915 18.5454 23.484C18.3785 23.5765 18.1908 23.625 18 23.625H6.75C6.54918 23.625 6.35203 23.5712 6.179 23.4693C6.00597 23.3674 5.86338 23.221 5.76603 23.0454C5.66868 22.8697 5.62012 22.6712 5.62539 22.4705C5.63066 22.2697 5.68957 22.074 5.796 21.9037L11.25 13.1782V11.25H10.125C9.82663 11.25 9.54049 11.1315 9.32951 10.9205C9.11853 10.7095 9 10.4234 9 10.125ZM12.375 15.6217L8.7795 21.375H15.9705L12.375 15.6217ZM18 20.3782L21.5955 14.625H14.4045L18 20.3782Z" fill="#F35D38"/>
</g>
<defs>
<clipPath id="clip0">
<rect width="36" height="36" fill="white"/>
</clipPath>
</defs>
</svg>
