<svg width="36" height="29" viewBox="0 0 36 29" fill="none" xmlns="http://www.w3.org/2000/svg">
<path d="M35.7139 26.0269L19.5139 0.826875C19.1826 0.311625 18.6123 0 17.9997 0C17.3871 0 16.8168 0.311625 16.4854 0.826875L0.285438 26.0269C0.110616 26.2988 0.0122477 26.6128 0.000667298 26.9358C-0.0109131 27.2589 0.0647213 27.5791 0.219626 27.8629C0.374603 28.1465 0.6031 28.3833 0.881125 28.5482C1.15915 28.713 1.47644 28.8 1.79969 28.8H34.1997C34.8584 28.8 35.4642 28.4406 35.7798 27.8623C35.9347 27.5787 36.0103 27.2585 35.9987 26.9356C35.9871 26.6126 35.8888 26.2987 35.7139 26.0269ZM17.9997 5.12887L22.8029 12.6H17.9997L14.3997 16.2L12.2588 14.0591L17.9997 5.12887Z" fill="#F35D38"/>
</svg>
