<svg width="32" height="33" viewBox="0 0 32 33" fill="none" xmlns="http://www.w3.org/2000/svg">
<path d="M31.3377 15.7396L16.7984 0.350488C16.6937 0.239384 16.5694 0.151239 16.4325 0.0910976C16.2956 0.0309565 16.1489 0 16.0007 0C15.8525 0 15.7057 0.0309565 15.5688 0.0910976C15.432 0.151239 15.3076 0.239384 15.2029 0.350488L0.663606 15.7396C0.240028 16.1883 0 16.7977 0 17.4333C0 18.7532 1.01306 19.8262 2.25908 19.8262H3.79102V30.8072C3.79102 31.469 4.29579 32.0037 4.92057 32.0037H13.7416V23.6286H17.695V32.0037H27.0808C27.7055 32.0037 28.2103 31.469 28.2103 30.8072V19.8262H29.7422C30.3423 19.8262 30.9177 19.5757 31.3412 19.1233C32.2202 18.1886 32.2202 16.6744 31.3377 15.7396Z" fill="#F35D38"/>
</svg>
