<svg width="32" height="32" viewBox="0 0 32 32" fill="none" xmlns="http://www.w3.org/2000/svg">
<path d="M29.68 23.32C29.0227 22.6679 28.1802 22.2345 27.2675 22.0788C26.3548 21.9231 25.4163 22.0527 24.58 22.45L22.855 20.74C26.3892 16.9263 29.0553 12.3924 30.67 7.44999C30.9764 6.59614 31.0338 5.67277 30.8354 4.78755C30.6371 3.90233 30.1912 3.09173 29.5497 2.45027C28.9083 1.8088 28.0977 1.3629 27.2124 1.16455C26.3272 0.966203 25.4039 1.02358 24.55 1.32999C19.6076 2.94469 15.0737 5.61082 11.26 9.14499L9.55 7.41999C9.90525 6.67463 10.0486 5.84589 9.96428 5.02451C9.88 4.20314 9.57134 3.42078 9.07211 2.76311C8.57288 2.10543 7.90233 1.59779 7.13386 1.29575C6.36539 0.993722 5.52864 0.908946 4.71521 1.05071C3.90177 1.19247 3.14303 1.5553 2.52203 2.09948C1.90103 2.64366 1.44173 3.3482 1.19441 4.13598C0.947085 4.92376 0.921276 5.76441 1.11981 6.56588C1.31834 7.36734 1.73355 8.09874 2.32 8.67999C3.1631 9.52415 4.30693 9.99894 5.5 9.99999C6.1654 9.99379 6.82114 9.8401 7.42 9.54999L9.145 11.26C5.61083 15.0737 2.9447 19.6076 1.33 24.55C1.04876 25.4026 1.00921 26.3165 1.21573 27.1903C1.42226 28.064 1.86678 28.8635 2.5 29.5C2.9288 29.9572 3.44375 30.325 4.01524 30.5825C4.58673 30.8399 5.20347 30.9818 5.83 31C6.37957 30.9948 6.9254 30.9089 7.45 30.745C12.3924 29.1303 16.9263 26.4642 20.74 22.93L22.45 24.655C22.0947 25.4004 21.9514 26.2291 22.0357 27.0505C22.12 27.8718 22.4287 28.6542 22.9279 29.3119C23.4271 29.9696 24.0977 30.4772 24.8661 30.7792C25.6346 31.0813 26.4714 31.166 27.2848 31.0243C28.0982 30.8825 28.857 30.5197 29.478 29.9755C30.099 29.4313 30.5583 28.7268 30.8056 27.939C31.0529 27.1512 31.0787 26.3106 30.8802 25.5091C30.6817 24.7076 30.2664 23.9762 29.68 23.395V23.32ZM6.565 6.54999C6.28453 6.83245 5.90335 6.99192 5.5053 6.99332C5.10726 6.99473 4.72495 6.83796 4.4425 6.55749C4.16004 6.27702 4.00057 5.89584 3.99916 5.49779C3.99776 5.09975 4.15453 4.71745 4.435 4.43499C4.71546 4.15253 5.09665 3.99306 5.49469 3.99166C5.89274 3.99025 6.27504 4.14702 6.5575 4.42749C6.83995 4.70796 6.99943 5.08914 7.00083 5.48719C7.00224 5.88523 6.84546 6.26753 6.565 6.54999ZM25.465 4.19499C25.6927 4.12001 25.9303 4.07956 26.17 4.07499C26.401 4.0731 26.63 4.11723 26.8438 4.20479C27.0575 4.29235 27.2517 4.4216 27.415 4.58499C27.6595 4.83884 27.8261 5.15738 27.8952 5.50295C27.9643 5.84852 27.933 6.20665 27.805 6.53499C27.0126 8.97068 25.9404 11.3063 24.61 13.495L18.505 7.38999C20.6937 6.05957 23.0293 4.98741 25.465 4.19499ZM6.535 27.805C6.20789 27.9359 5.84954 27.968 5.50439 27.8972C5.15923 27.8264 4.84245 27.6558 4.5933 27.4067C4.34416 27.1575 4.17362 26.8408 4.10281 26.4956C4.03201 26.1504 4.06406 25.7921 4.195 25.465C4.98741 23.0293 6.05957 20.6937 7.39 18.505L13.495 24.61C11.3063 25.9404 8.97069 27.0126 6.535 27.805ZM16 22.885L9.115 16C9.78345 15.0928 10.4994 14.2215 11.26 13.39L18.625 20.755C17.7882 21.5108 16.912 22.2218 16 22.885ZM20.725 18.625L13.375 11.26C14.2114 10.499 15.0876 9.78301 16 9.11499L22.9 16.015C22.2267 16.9226 21.5057 17.7938 20.74 18.625H20.725ZM27.55 27.625C27.4111 27.7648 27.2461 27.876 27.0642 27.952C26.8824 28.0281 26.6874 28.0676 26.4903 28.0683C26.2932 28.069 26.0979 28.0309 25.9156 27.9561C25.7332 27.8813 25.5674 27.7714 25.4275 27.6325C25.2876 27.4936 25.1765 27.3286 25.1004 27.1467C25.0244 26.9649 24.9849 26.7699 24.9842 26.5728C24.9835 26.3757 25.0216 26.1804 25.0964 25.998C25.1712 25.8157 25.2811 25.6498 25.42 25.51C25.701 25.2306 26.0812 25.0738 26.4775 25.0738C26.8738 25.0738 27.254 25.2306 27.535 25.51C27.8007 25.7843 27.9517 26.1497 27.9572 26.5315C27.9628 26.9134 27.8225 27.283 27.565 27.565L27.55 27.625Z" fill="#F35D38"/>
</svg>
