<svg width="22" height="19" viewBox="0 0 22 19" fill="none" xmlns="http://www.w3.org/2000/svg">
<path d="M0 1.33333C0 0.979711 0.140476 0.640573 0.390525 0.390525C0.640573 0.140476 0.979711 0 1.33333 0H20C20.3536 0 20.6928 0.140476 20.9428 0.390525C21.1929 0.640573 21.3333 0.979711 21.3333 1.33333C21.3333 1.68696 21.1929 2.02609 20.9428 2.27614C20.6928 2.52619 20.3536 2.66667 20 2.66667H1.33333C0.979711 2.66667 0.640573 2.52619 0.390525 2.27614C0.140476 2.02609 0 1.68696 0 1.33333Z" fill="#0C0D0E"/>
<path d="M0 17.3333C0 16.9797 0.140476 16.6406 0.390525 16.3905C0.640573 16.1405 0.979711 16 1.33333 16H20C20.3536 16 20.6928 16.1405 20.9428 16.3905C21.1929 16.6406 21.3333 16.9797 21.3333 17.3333C21.3333 17.687 21.1929 18.0261 20.9428 18.2761C20.6928 18.5262 20.3536 18.6667 20 18.6667H1.33333C0.979711 18.6667 0.640573 18.5262 0.390525 18.2761C0.140476 18.0261 0 17.687 0 17.3333Z" fill="#0C0D0E"/>
<path d="M1.33333 8C0.979711 8 0.640573 8.14048 0.390525 8.39052C0.140476 8.64057 0 8.97971 0 9.33333C0 9.68696 0.140476 10.0261 0.390525 10.2761C0.640573 10.5262 0.979711 10.6667 1.33333 10.6667H12C12.3536 10.6667 12.6928 10.5262 12.9428 10.2761C13.1929 10.0261 13.3333 9.68696 13.3333 9.33333C13.3333 8.97971 13.1929 8.64057 12.9428 8.39052C12.6928 8.14048 12.3536 8 12 8H1.33333Z" fill="#0C0D0E"/>
</svg>
