<svg width="36" height="28" viewBox="0 0 36 28" fill="none" xmlns="http://www.w3.org/2000/svg">
<path d="M35.5156 10.0001C33.7006 10.0082 27.0775 10.3851 22.1506 15.1876C20.0806 17.0394 18.8156 19.1438 18 21.1163C17.1844 19.1438 15.9194 17.0394 13.8494 15.1876C8.92252 10.3851 2.2994 10.0082 0.484397 10.0001C0.208772 9.99882 -0.00247804 10.2126 2.19598e-05 10.4888C0.014397 12.2338 0.446272 18.3726 5.54815 22.9451C10.7994 28.0588 16 28.0001 18 28.0001C20 28.0001 25.1994 28.0595 30.4519 22.9451C35.5544 18.3719 35.9856 12.2338 36 10.4888C36.0025 10.2126 35.7913 9.99882 35.5156 10.0001ZM17.9988 16.9126C18.8 15.7344 19.7238 14.6763 20.7544 13.7551C21.9475 12.5919 23.2281 11.6738 24.5206 10.9313C23.4931 6.52507 21.2881 2.61569 18.475 0.167568C18.2181 -0.0561817 17.7863 -0.0561817 17.5288 0.167568C14.7169 2.61382 12.5119 6.51944 11.4825 10.9219C12.7556 11.6532 14.0138 12.5557 15.1838 13.6963C16.2488 14.6506 17.194 15.7306 17.9988 16.9126Z" fill="#F35D38"/>
</svg>
