<svg width="31" height="34" viewBox="0 0 31 34" fill="none" xmlns="http://www.w3.org/2000/svg">
<path d="M26.52 2.73164C23.01 -0.778359 16.59 -0.0733597 12.195 4.32164C9.795 6.72164 8.415 10.1266 8.385 12.5116C8.355 14.8816 8.775 18.3466 6.36 20.7616L0 27.1216L2.13 29.2516L8.49 22.8916C10.905 20.4766 14.37 20.8966 16.74 20.8666C19.11 20.8366 22.53 19.4566 24.93 17.0566C29.31 12.6616 30.03 6.24164 26.52 2.73164ZM12.72 16.5166C10.425 14.2216 11.145 9.60164 14.31 6.43664C17.475 3.27164 22.08 2.55164 24.39 4.84664C26.685 7.14164 25.965 11.7616 22.8 14.9266C19.635 18.0916 15.03 18.8116 12.72 16.5166ZM24.24 24.4966C25.035 24.4966 25.8 24.8116 26.355 25.3816C27.525 26.5516 27.525 28.4566 26.355 29.6266C25.8 30.1816 25.035 30.4966 24.24 30.4966C23.445 30.4966 22.68 30.1816 22.125 29.6116C20.955 28.4416 20.955 26.5366 22.125 25.3666C22.68 24.8116 23.445 24.4966 24.24 24.4966ZM24.24 21.4966C23.052 21.4943 21.89 21.8448 20.9015 22.5038C19.913 23.1628 19.1425 24.1005 18.6878 25.198C18.233 26.2956 18.1145 27.5034 18.3472 28.6684C18.5799 29.8334 19.1535 30.9031 19.995 31.7416C21.165 32.9116 22.71 33.4966 24.24 33.4966C25.428 33.499 26.59 33.1485 27.5785 32.4895C28.567 31.8305 29.3375 30.8928 29.7922 29.7952C30.247 28.6977 30.3655 27.4898 30.1328 26.3248C29.9001 25.1598 29.3265 24.0902 28.485 23.2516C27.9275 22.6945 27.2656 22.2527 26.5372 21.9516C25.8088 21.6505 25.0282 21.4959 24.24 21.4966Z" fill="#F35D38"/>
</svg>
