<svg width="30" height="33" viewBox="0 0 30 33" fill="none" xmlns="http://www.w3.org/2000/svg">
<path d="M3.3 3.2501C3.3 2.0501 4.35 0.850098 5.7 0.850098C7.05 0.850098 8.1 1.9001 8.1 3.2501C8.1 4.6001 6.9 5.5001 5.7 5.5001C4.5 5.5001 3.3 4.4501 3.3 3.2501ZM30 3.8501L29.25 2.5001L17.25 8.6501L18 10.0001L30 3.8501ZM28.2 28.4501L29.55 29.8001C28.65 30.7001 27.75 31.3001 26.7 31.7501C25.65 32.2001 24.45 32.5001 23.25 32.5001H0V30.5501H4.05L7.2 25.3001L3.75 20.5001L2.55 8.8001C2.55 7.4501 3.75 6.2501 5.1 6.2501C5.55 6.2501 6 6.4001 6.3 6.5501L11.55 10.4501L15 9.2501L16.2 11.6501L10.95 13.9001C10.8 13.7501 8.55 12.1001 6.9 10.7501L7.5 16.0001L15.45 22.7501L18 30.5501H23.25C24.15 30.5501 25.05 30.4001 25.95 29.9501C26.85 29.6501 27.6 29.0501 28.2 28.4501ZM7.5 30.5501H15L12.6 24.7001L9.15 21.8501L10.95 25.6001L7.5 30.5501Z" fill="#F35D38"/>
</svg>
